<svg width="123" height="19" viewBox="0 0 123 19" fill="none" xmlns="http://www.w3.org/2000/svg">
<rect width="123" height="19" fill="#1E1E1E"/>
<path d="M62.5398 10.125V18H60.5284V4.90909H62.4716V6.95454H62.642C62.9489 6.28977 63.4148 5.75568 64.0398 5.35227C64.6648 4.94318 65.4716 4.73863 66.4602 4.73863C67.3466 4.73863 68.1222 4.92045 68.7869 5.28409C69.4517 5.64204 69.9688 6.1875 70.3381 6.92045C70.7074 7.64772 70.892 8.56818 70.892 9.68181V18H68.8807V9.81818C68.8807 8.78977 68.6136 7.98863 68.0795 7.41477C67.5455 6.83522 66.8125 6.54545 65.8807 6.54545C65.2386 6.54545 64.6648 6.68466 64.1591 6.96306C63.6591 7.24147 63.2642 7.64772 62.9744 8.18181C62.6847 8.71591 62.5398 9.36363 62.5398 10.125Z" fill="#58C4DC"/>
<path d="M50.8572 18.3068C50.0277 18.3068 49.2748 18.1506 48.5987 17.8381C47.9226 17.5199 47.3856 17.0625 46.9879 16.4659C46.5902 15.8636 46.3913 15.1364 46.3913 14.2841C46.3913 13.5341 46.5391 12.9261 46.8345 12.4602C47.13 11.9886 47.5249 11.6193 48.0192 11.3523C48.5135 11.0852 49.0589 10.8864 49.6555 10.7557C50.2578 10.6193 50.8629 10.5114 51.4709 10.4318C52.2663 10.3295 52.9112 10.2528 53.4055 10.2017C53.9055 10.1449 54.2692 10.0511 54.4964 9.92045C54.7294 9.78977 54.8459 9.5625 54.8459 9.23863V9.17045C54.8459 8.32954 54.6158 7.67613 54.1555 7.21022C53.701 6.74431 53.0106 6.51136 52.0845 6.51136C51.1243 6.51136 50.3714 6.72159 49.826 7.14204C49.2805 7.5625 48.897 8.01136 48.6754 8.48863L46.7663 7.80681C47.1072 7.01136 47.5618 6.39204 48.13 5.94886C48.7038 5.5 49.3288 5.1875 50.005 5.01136C50.6868 4.82954 51.3572 4.73863 52.0163 4.73863C52.4368 4.73863 52.9197 4.78977 53.4652 4.89204C54.0163 4.98863 54.5476 5.19034 55.0589 5.49715C55.576 5.80397 56.005 6.26704 56.3459 6.88636C56.6868 7.50568 56.8572 8.33522 56.8572 9.375V18H54.8459V16.2273H54.7436C54.6072 16.5114 54.38 16.8153 54.0618 17.1392C53.7436 17.4631 53.3203 17.7386 52.7919 17.9659C52.2635 18.1932 51.6186 18.3068 50.8572 18.3068ZM51.1641 16.5C51.9595 16.5 52.63 16.3437 53.1754 16.0312C53.7266 15.7187 54.1413 15.3153 54.4197 14.821C54.7038 14.3267 54.8459 13.8068 54.8459 13.2614V11.4205C54.7606 11.5227 54.5731 11.6165 54.2834 11.7017C53.9993 11.7812 53.6697 11.8523 53.2947 11.9148C52.9254 11.9716 52.5646 12.0227 52.2123 12.0682C51.8658 12.108 51.5845 12.142 51.3686 12.1705C50.8459 12.2386 50.3572 12.3494 49.9027 12.5028C49.4538 12.6506 49.0902 12.875 48.8118 13.1761C48.5391 13.4716 48.4027 13.875 48.4027 14.3864C48.4027 15.0852 48.6612 15.6136 49.1783 15.9716C49.701 16.3239 50.3629 16.5 51.1641 16.5Z" fill="#58C4DC"/>
<path d="M34.9773 10.125V18H32.9659V4.90909H34.9091V6.95454H35.0795C35.3864 6.28977 35.8523 5.75568 36.4773 5.35227C37.1023 4.94318 37.9091 4.73863 38.8977 4.73863C39.7841 4.73863 40.5597 4.92045 41.2244 5.28409C41.8892 5.64204 42.4063 6.1875 42.7756 6.92045C43.1449 7.64772 43.3295 8.56818 43.3295 9.68181V18H41.3182V9.81818C41.3182 8.78977 41.0511 7.98863 40.517 7.41477C39.983 6.83522 39.25 6.54545 38.3182 6.54545C37.6761 6.54545 37.1023 6.68466 36.5966 6.96306C36.0966 7.24147 35.7017 7.64772 35.4119 8.18181C35.1222 8.71591 34.9773 9.36363 34.9773 10.125Z" fill="#58C4DC"/>
<path d="M23.0028 18.2727C21.9119 18.2727 20.9489 17.9972 20.1136 17.446C19.2784 16.8892 18.625 16.1051 18.1534 15.0938C17.6818 14.0767 17.446 12.875 17.446 11.4886C17.446 10.1136 17.6818 8.92046 18.1534 7.90909C18.625 6.89773 19.2812 6.11648 20.1222 5.56534C20.9631 5.01421 21.9347 4.73864 23.0369 4.73864C23.8892 4.73864 24.5625 4.88068 25.0568 5.16477C25.5568 5.44318 25.9375 5.76137 26.1989 6.11932C26.4659 6.47159 26.6733 6.76137 26.821 6.98864H26.9915V0.545456H29.0028V18H27.0597V15.9886H26.821C26.6733 16.2273 26.4631 16.5284 26.1903 16.892C25.9176 17.25 25.5284 17.571 25.0227 17.8551C24.517 18.1335 23.8437 18.2727 23.0028 18.2727ZM23.2756 16.4659C24.0824 16.4659 24.7642 16.2557 25.321 15.8352C25.8778 15.4091 26.3011 14.821 26.5909 14.071C26.8807 13.3153 27.0256 12.4432 27.0256 11.4545C27.0256 10.4773 26.8835 9.62216 26.5994 8.88921C26.3153 8.15057 25.8949 7.57671 25.3381 7.16762C24.7812 6.75284 24.0937 6.54546 23.2756 6.54546C22.4233 6.54546 21.7131 6.76421 21.1449 7.20171C20.5824 7.63352 20.1591 8.22159 19.875 8.96591C19.5966 9.70455 19.4574 10.5341 19.4574 11.4545C19.4574 12.3864 19.5994 13.233 19.8835 13.9943C20.1733 14.75 20.5994 15.3523 21.1619 15.8011C21.7301 16.2443 22.4347 16.4659 23.2756 16.4659Z" fill="#58C4DC"/>
<path d="M2.82954 18H0.613632L7.02272 0.545456H9.20454L15.6136 18H13.3977L8.18181 3.30682H8.04545L2.82954 18ZM3.64772 11.1818H12.5795V13.0568H3.64772V11.1818Z" fill="#58C4DC"/>
<path d="M76.3068 18.1364C75.8864 18.1364 75.5256 17.9858 75.2244 17.6847C74.9233 17.3835 74.7727 17.0227 74.7727 16.6023C74.7727 16.1818 74.9233 15.821 75.2244 15.5199C75.5256 15.2187 75.8864 15.0682 76.3068 15.0682C76.7273 15.0682 77.0881 15.2187 77.3892 15.5199C77.6903 15.821 77.8409 16.1818 77.8409 16.6023C77.8409 16.8807 77.7699 17.1364 77.6278 17.3693C77.4915 17.6023 77.3068 17.7898 77.0739 17.9318C76.8466 18.0682 76.5909 18.1364 76.3068 18.1364ZM87.1094 18H81.723V0.545454H87.348C89.0412 0.545454 90.4901 0.894886 91.6946 1.59375C92.8991 2.28693 93.8224 3.28409 94.4645 4.58523C95.1065 5.88068 95.4276 7.43182 95.4276 9.23864C95.4276 11.0568 95.1037 12.6222 94.456 13.9347C93.8082 15.2415 92.8651 16.2472 91.6264 16.9517C90.3878 17.6506 88.8821 18 87.1094 18ZM83.8366 16.125H86.973C88.4162 16.125 89.6122 15.8466 90.5611 15.2898C91.5099 14.733 92.2173 13.9403 92.6832 12.9119C93.1491 11.8835 93.3821 10.6591 93.3821 9.23864C93.3821 7.82955 93.152 6.61648 92.6918 5.59943C92.2315 4.5767 91.544 3.79261 90.6293 3.24716C89.7145 2.69602 88.5753 2.42045 87.2116 2.42045H83.8366V16.125ZM104.189 18.2727C102.928 18.2727 101.839 17.9943 100.925 17.4375C100.016 16.875 99.3139 16.0909 98.8196 15.0852C98.331 14.0739 98.0866 12.8977 98.0866 11.5568C98.0866 10.2159 98.331 9.03409 98.8196 8.01136C99.3139 6.98295 100.001 6.18182 100.882 5.60795C101.768 5.02841 102.803 4.73864 103.984 4.73864C104.666 4.73864 105.339 4.85227 106.004 5.07954C106.669 5.30682 107.274 5.67614 107.82 6.1875C108.365 6.69318 108.8 7.36364 109.124 8.19886C109.447 9.03409 109.609 10.0625 109.609 11.2841V12.1364H99.5185V10.3977H107.564C107.564 9.65909 107.416 9 107.121 8.42045C106.831 7.84091 106.416 7.38352 105.876 7.0483C105.342 6.71307 104.712 6.54545 103.984 6.54545C103.183 6.54545 102.49 6.74432 101.905 7.14205C101.325 7.53409 100.879 8.04545 100.567 8.67614C100.254 9.30682 100.098 9.98295 100.098 10.7045V11.8636C100.098 12.8523 100.268 13.6903 100.609 14.3778C100.956 15.0597 101.436 15.5795 102.05 15.9375C102.663 16.2898 103.376 16.4659 104.189 16.4659C104.717 16.4659 105.195 16.392 105.621 16.2443C106.053 16.0909 106.425 15.8636 106.737 15.5625C107.05 15.2557 107.291 14.875 107.462 14.4205L109.405 14.9659C109.2 15.625 108.857 16.2045 108.374 16.7045C107.891 17.1989 107.294 17.5852 106.584 17.8636C105.874 18.1364 105.075 18.2727 104.189 18.2727ZM122.975 4.90909L118.134 18H116.089L111.248 4.90909H113.43L117.043 15.3409H117.18L120.793 4.90909H122.975Z" fill="#EF5E1E"/>
</svg>
